<svg xmlns="http://www.w3.org/2000/svg" width="758.21802" height="150.00014"><path fill="#3f8dd2" d="m 397.858,143.17514 h 0.86 c 0.9,0 1.75,-0.287 1.75,-1.062 0,-0.657 -0.44,-1.144 -1.63,-1.144 -0.49,0 -0.77,0.037 -0.98,0.081 z m 0,3.844 h -1.27 v -6.825 c 0.7,-0.125 1.43,-0.206 2.37,-0.206 1.14,0 1.72,0.206 2.12,0.531 0.42,0.287 0.7,0.819 0.7,1.469 0,0.818 -0.61,1.349 -1.31,1.593 v 0.081 c 0.58,0.25 0.9,0.782 1.11,1.675 0.2,1.025 0.37,1.432 0.53,1.682 h -1.31 c -0.2,-0.25 -0.37,-0.863 -0.57,-1.763 -0.16,-0.775 -0.61,-1.1 -1.55,-1.1 h -0.82 z m -4.05,-3.6 c 0,3.025 2.25,5.393 5.27,5.393 2.9,0.044 5.11,-2.368 5.11,-5.35 0,-2.987 -2.21,-5.393 -5.19,-5.393 -2.94,0 -5.19,2.406 -5.19,5.35 m 11.81,0 c 0,3.718 -2.85,6.581 -6.57,6.581 -3.73,0 -6.66,-2.863 -6.66,-6.581 0,-3.638 2.93,-6.494 6.69,-6.494 3.69,0 6.54,2.856 6.54,6.494 m -34.39,-57.955999 c -0.46,16.617999 -9.29,28.274999 -26.24,28.430999 -17.58,0.156 -26.69,-12.163 -26.84,-29.737999 l -0.09,-9.787 c -10.9,-1.775 -22.51,-3.319 -33.6,-4.519 v 17.269 c 0.33,36.149999 21.25,59.080999 60.81,58.724999 36.16,-0.332 55.74,-19.938 58.42,-51.187999 -10.7,-3.35 -21.53,-6.412 -32.46,-9.193 m -153.731,-19.208 c -3.325,0 -6.632,0.075 -9.938,0.125 l 0.206,23.325 35.833,0.425 c -1.5,11.405999 -10.65,23.530999 -33.226,23.724999 -26.969,0.25 -42.3,-16.986999 -42.513,-40.743999 -0.012,-1.668 0.069,-3.293 0.207,-4.893 -11.532,0.906 -22.969,2.15 -34.325,3.681 0,0.437 -0.044,0.856 -0.038,1.3 0.419,45.549999 31.625,73.036999 74.762,72.642999 46.773,-0.425 68.053,-33.149 67.823,-76.836999 -19.35,-1.819 -38.97,-2.75 -58.791,-2.75 m -131.222,13.932 -25.638,6.069 c -14.9,3.875 -29.587,8.294 -44.037,13.225 L 0,142.72514 h 34.644 l 10.906,-32.569 49.987,-4.106 13.275,36.675 h 34.8 L 115.956,74.562141 c -9.975,1.638 -19.869,3.513 -29.681,5.625"/><path fill="#1a3c50" d="m 757.578,117.75114 -2.76,5.806 c -2.71,-1.269 -4.74,-1.862 -6.69,-1.862 -2.08,0 -2.71,0.718 -2.71,1.737 0,0.888 0.55,1.481 2.24,2.5 l 4.92,3.094 c 3.56,2.162 5.64,4.537 5.64,8.687 0,5.725 -3.9,8.819 -10.81,8.819 -3.99,0 -7.72,-1.019 -11.07,-2.969 l 2.97,-5.893 c 2.85,1.743 5.64,2.718 8.35,2.718 2.38,0 3.65,-0.806 3.65,-2.375 0,-1.356 -1.15,-2.162 -2.8,-3.181 l -4.54,-2.837 c -3.85,-2.288 -5.46,-5.132 -5.46,-8.482 0,-4.831 3.18,-7.924 9.45,-7.924 2.84,0 6.1,0.637 9.62,2.162 m -23.65,21.999 v 6.144 h -18.56 v -29.669 h 18.35 v 6.144 h -11.78 v 4.662 h 10.59 v 5.981 h -10.59 v 6.738 z m -49.37,-8.689 c 0,-9.45 6.91,-15.469 16.28,-15.469 4.62,0 8.05,1.482 10.63,3.307 l -3.55,5.762 c -1.91,-1.275 -4.2,-2.287 -7.08,-2.287 -5.17,0 -9.03,3.306 -9.03,8.687 0,5.381 3.86,8.688 9.03,8.688 2.88,0 5.17,-1.019 7.08,-2.288 l 3.55,5.763 c -2.58,1.825 -6.01,3.306 -10.63,3.306 -9.37,0 -16.28,-6.019 -16.28,-15.469 m -4.32,14.835 h -5.59 l -14.16,-18.269 h -0.04 v 18.269 h -6.57 v -29.669 h 5.55 l 14.2,18.35 h 0.05 v -18.35 h 6.56 z m -31.1,-6.146 v 6.144 h -18.57 v -29.669 h 18.35 v 6.144 h -11.78 v 4.662 h 10.6 v 5.981 h -10.6 v 6.738 z m -24.58,6.145 h -6.57 v -29.668 h 6.57 z m -37.38,-14.834 c 0,-9.45 6.91,-15.469 16.27,-15.469 4.63,0 8.06,1.482 10.64,3.307 l -3.55,5.762 c -1.91,-1.275 -4.2,-2.287 -7.09,-2.287 -5.16,0 -9.02,3.306 -9.02,8.687 0,5.381 3.86,8.688 9.02,8.688 2.89,0 5.18,-1.019 7.09,-2.288 l 3.55,5.763 c -2.58,1.825 -6.01,3.306 -10.64,3.306 -9.36,0 -16.27,-6.019 -16.27,-15.469 m -2.45,-13.31 -2.76,5.806 c -2.71,-1.269 -4.74,-1.862 -6.69,-1.862 -2.09,0 -2.72,0.718 -2.72,1.737 0,0.888 0.55,1.481 2.25,2.5 l 4.92,3.094 c 3.56,2.162 5.63,4.537 5.63,8.687 0,5.725 -3.9,8.819 -10.81,8.819 -3.98,0 -7.71,-1.019 -11.06,-2.969 l 2.97,-5.893 c 2.84,1.743 5.63,2.718 8.35,2.718 2.37,0 3.64,-0.806 3.64,-2.375 0,-1.356 -1.14,-2.162 -2.79,-3.181 l -4.54,-2.837 c -3.86,-2.288 -5.47,-5.132 -5.47,-8.482 0,-4.831 3.18,-7.924 9.46,-7.924 2.83,0 6.1,0.637 9.62,2.162 m -32.25,21.999 v 6.144 h -18.56 v -29.669 h 18.35 v 6.144 h -11.79 v 4.662 h 10.6 v 5.981 h -10.6 v 6.738 z m -49.37,-8.689 c 0,-9.45 6.9,-15.469 16.27,-15.469 4.63,0 8.06,1.482 10.64,3.307 l -3.56,5.762 c -1.9,-1.275 -4.2,-2.287 -7.08,-2.287 -5.17,0 -9.02,3.306 -9.02,8.687 0,5.381 3.85,8.688 9.02,8.688 2.88,0 5.18,-1.019 7.08,-2.288 l 3.56,5.763 c -2.58,1.825 -6.01,3.306 -10.64,3.306 -9.37,0 -16.27,-6.019 -16.27,-15.469 m -11.53,2.967 -3.68,-10.469 -3.65,10.469 z m 2.03,5.85 h -11.44 l -2.07,6.019 h -7.38 l 11.7,-29.669 h 6.95 l 11.7,29.669 h -7.33 z m -24.74,-14.031 c 0,-2.587 -1.78,-3.644 -4.49,-3.644 h -3.48 v 7.588 h 3.48 c 2.71,0 4.49,-1.319 4.49,-3.944 m 6.99,-0.125 c 0,5.806 -3.43,10 -10.93,10 h -4.03 v 10.175 h -6.57 v -29.668 h 10.6 c 7.5,0 10.93,4.149 10.93,9.493 m -25.68,-7.971 -2.75,5.806 c -2.72,-1.269 -4.75,-1.862 -6.7,-1.862 -2.08,0 -2.71,0.718 -2.71,1.737 0,0.888 0.55,1.481 2.24,2.5 l 4.92,3.094 c 3.56,2.162 5.64,4.537 5.64,8.687 0,5.725 -3.9,8.819 -10.81,8.819 -3.98,0 -7.71,-1.019 -11.06,-2.969 l 2.96,-5.893 c 2.84,1.743 5.64,2.718 8.35,2.718 2.38,0 3.65,-0.806 3.65,-2.375 0,-1.356 -1.15,-2.162 -2.8,-3.181 l -4.53,-2.837 c -3.86,-2.288 -5.47,-5.132 -5.47,-8.482 0,-4.831 3.18,-7.924 9.45,-7.924 2.84,0 6.1,0.637 9.62,2.162 m 199.68,-50.607999 v 17.718 h 3.43 c 4.79,0 8.39,-3.137 8.39,-8.862 0,-5.719 -3.6,-8.856 -8.39,-8.856 z m 18.9,8.856 c 0,9.244 -6.65,14.837 -16.02,14.837 h -9.45 v -29.668 h 9.45 c 9.37,0 16.02,5.593 16.02,14.831 m -31.48,14.837 h -5.6 l -14.15,-18.268 h -0.05 v 18.268 h -6.57 v -29.668 h 5.55 l 14.2,18.35 h 0.05 v -18.35 h 6.57 z m -40.43,-11.868 -3.69,-10.469 -3.64,10.469 z m 2.03,5.85 h -11.44 l -2.08,6.019 h -7.38 l 11.7,-29.669 h 6.95 l 11.7,29.669 h -7.33 z m -36.31,-23.652 v 29.669 h -6.57 v -12.462 h -12.34 v 12.462 h -6.57 v -29.669 h 6.57 v 11.019 h 12.34 v -11.019 z m -29.12,6.145 h -7.8 v 23.525 h -6.57 v -23.525 h -7.84 v -6.143 h 22.21 z m -40.26,6.782 h 4.33 c 2.62,0 4.11,-1.019 4.11,-3.475 0,-2.206 -1.49,-3.475 -4.11,-3.475 h -4.33 z m 1.31,5.513 h -1.31 v 11.231 h -6.57 v -29.669 h 11.87 c 6.66,0 10.09,4.106 10.09,9.281 0,4.325 -2.33,7.757 -6.91,8.813 l 8.48,11.575 h -8.23 z m -22.79,-0.638 -3.69,-10.469 -3.64,10.469 z m 2.03,5.85 h -11.44 l -2.08,6.019 h -7.37 l 11.7,-29.669 h 6.95 l 11.7,29.669 h -7.33 z m -23.9,-0.127 v 6.143 h -18.56 v -29.668 h 18.35 v 6.143 h -11.78 v 4.663 h 10.59 v 5.981 h -10.59 v 6.738 z m 233.03,-66.332 c 0,9.325 -4.58,16.275 -14.54,16.275 -9.15,0 -15.72,-5.887 -15.72,-15.556 0,-9.194 6.1,-15.387 16.19,-15.387 4.79,0 8.52,1.443 11.7,3.9 l -4.28,5.637 c -2.29,-1.737 -4.66,-2.75 -7.59,-2.75 -5.64,0 -8.77,3.725 -8.77,8.644 0,5.044 3.22,8.731 8.94,8.731 4.79,0 6.78,-2.712 7.12,-5.125 h -7.63 v -5.894 h 14.54 c 0.04,0.507 0.04,1.019 0.04,1.525 m -35.42,15.642 h -5.6 l -14.15,-18.269 h -0.05 v 18.269 h -6.57 v -29.669 h 5.55 l 14.2,18.35 h 0.05 v -18.35 h 6.57 z m -32.38,0.001 h -6.57 v -29.669 h 6.57 z m -37.38,-14.836 c 0,-9.45 6.9,-15.469 16.27,-15.469 4.63,0 8.06,1.481 10.65,3.306 l -3.57,5.763 c -1.9,-1.275 -4.2,-2.288 -7.08,-2.288 -5.17,0 -9.02,3.306 -9.02,8.688 0,5.381 3.85,8.687 9.02,8.687 2.88,0 5.18,-1.019 7.08,-2.287 l 3.57,5.762 c -2.59,1.825 -6.02,3.306 -10.65,3.306 -9.37,0 -16.27,-6.018 -16.27,-15.468 m -4.32,14.835 h -5.59 l -14.16,-18.269 h -0.04 v 18.269 h -6.57 v -29.669 h 5.55 l 14.2,18.35 h 0.04 v -18.35 h 6.57 z m -41.27,-11.868 -3.69,-10.469 -3.64,10.469 z m 2.03,5.85 h -11.44 l -2.08,6.019 h -7.38 l 11.7,-29.669 h 6.95 l 11.7,29.669 h -7.33 z m -27.88,6.018 h -7.04 l -11.23,-29.669 h 7.84 l 6.86,21.194 h 0.09 l 6.86,-21.194 h 7.85 z m -37.21,-23.695 v 17.719 h 3.43 c 4.79,0 8.39,-3.137 8.39,-8.862 0,-5.719 -3.6,-8.857 -8.39,-8.857 z m 18.9,8.857 c 0,9.243 -6.65,14.837 -16.02,14.837 h -9.45 v -29.669 h 9.45 c 9.37,0 16.02,5.594 16.02,14.832 m -40.39,2.97 -3.68,-10.469 -3.65,10.469 z m 2.04,5.85 h -11.45 l -2.07,6.019 h -7.38 l 11.7,-29.669 h 6.95 l 11.7,29.669 h -7.33 z m -131.54,31.001 v -56.087 h -33.59 v 51.575 c 11.09,1.2 22.69,2.737 33.59,4.512 m 85.93,20.389 v -76.481 h -32.83 v 67.169 c 11.07,2.812 22.02,5.912 32.83,9.312 m -231.609,-26.863 c 6.187,-12.294 18.618,-20.362 36.468,-20.519 13.788,-0.125 25.011,4.557 35.871,12.644 l 19.95,-26.737 c -15.09,-11.456 -32.73,-18.08800002 -55.308,-17.89400002 -41.056,0.369 -67.863,22.40000002 -74.175,56.31200002 12.287,-1.625 24.687,-2.906 37.194,-3.806 m -113.483,18.834 11.675,-34.525 10.544,29.1 c 9.588,-2.15 19.263,-4.088 29.019,-5.781 L 86.955,2.894141 H 53.686 l -30.306,78.937 c 11.688,-3.843 23.525,-7.337 35.506,-10.487"/></svg>