<svg id="Layer_1" data-name="Layer 1" xmlns="http://www.w3.org/2000/svg" viewBox="0 0 46.307 30.019"><defs><style>.cls-1{fill:#2aaae1;}</style></defs><path class="cls-1" d="M37.349,11.109c-.77-.11-1.654-.209-2.627-.277a37.8611,37.8611,0,0,0-5.535.01c-.499.038-1.007.086-1.523.148a31.9948,31.9948,0,0,0-7.747,1.903q-.71.2745-1.422.593l-.028.013c-.24.112-.483.218-.726.321a28.0121,28.0121,0,0,1-7.487,1.885,40.7018,40.7018,0,0,1-4.315.267,43.6186,43.6186,0,0,1-5.688-.307H.25v4.806c.899.099,2.057.199,3.406.249,4.461.166,11.031-.203,16.821-2.894a26.3442,26.3442,0,0,1,7.027-1.994,33.1844,33.1844,0,0,1,11.451.412l.005.0009C38.611,15.101,37.615,11.951,37.349,11.109Z"/><path d="M27.504,15.832l-1.432,4.249h5.751l1.424-4.541A32.2352,32.2352,0,0,0,27.504,15.832Z"/><path d="M5.938.25H.251V15.666a43.9515,43.9515,0,0,0,5.687.307Z"/><path d="M31.326.25H25.581l-2.05,6.103L21.551.25h-5.3l-2.27,7.284L12.276.25H6.638l3.616,15.454A27.9934,27.9934,0,0,0,17.74,13.82l1.214-4.1691.962,3.2421a32.0172,32.0172,0,0,1,7.747-1.903Z"/><path d="M46.057,20.081,39.251.255,32.757.25,29.186,10.842a37.7351,37.7351,0,0,1,5.536-.01l1.271-4.056,4.161,13.305Z"/><path d="M2.78,23.461H.251V29.67H1.768V27.414H2.86c.906,0,1.394-.221,1.394-1.406V24.734C4.254,23.82,3.881,23.461,2.78,23.461Zm-.506,2.854H1.768V24.524a5.4879,5.4879,0,0,1,.879.043c.186.088.186.212.186.799C2.833,26.156,2.833,26.324,2.274,26.315Z"/><path d="M7.888,28.169c0,.202,0,.527-.444.527-.47,0-.47-.359-.47-.553V23.47H5.456v4.506c0,.72,0,1.793,2.051,1.793,1.881,0,1.8989-1.073,1.8989-1.836V23.47H7.888Z"/><path d="M13.75,26.395c.7821-.281.844-.632.844-1.528a1.1932,1.1932,0,0,0-.4789-1.135,2.2991,2.2991,0,0,0-1.26-.263H10.7859v6.202H13.111a1.3542,1.3542,0,0,0,1.331-.545,2.25,2.25,0,0,0,.2319-1.159,2.2043,2.2043,0,0,0-.125-.992A1.0494,1.0494,0,0,0,13.75,26.395Zm-1.534-1.827h.5761c.373,0,.462.167.462.65,0,.457-.044.676-.4181.676h-.62Zm.5761,3.989h-.5761V26.992h.5761c.462,0,.488.228.488.808C13.28,28.222,13.28,28.557,12.792,28.557Z"/><polygon points="17.471 23.462 15.944 23.462 15.944 29.671 19.034 29.671 19.034 28.573 17.471 28.573 17.471 23.462"/><rect x="20.23" y="23.4698" width="1.5181" height="6.2012"/><path d="M26.088,26.483l-1.296-.887c-.266-.175-.284-.298-.284-.633,0-.254,0-.544.381-.544.392,0,.417.201.417.518v.431h1.439c.034-1.361-.116-2.013-1.758-2.013-1.562,0-1.962.519-1.962,1.792,0,.887.232,1.064.87,1.521l.914.65c.56.394.569.439.569.912,0,.15-.009.44-.479.44-.444,0-.444-.351-.444-.501v-.483H22.954c-.017.746-.026,1.309.427,1.687a2.457,2.457,0,0,0,1.545.386,1.9969,1.9969,0,0,0,1.57-.474,1.6138,1.6138,0,0,0,.399-1.273A1.4311,1.4311,0,0,0,26.088,26.483Z"/><polygon points="30.663 25.973 29.606 25.973 29.606 23.469 28.089 23.469 28.089 29.67 29.606 29.67 29.606 27.071 30.663 27.071 30.663 29.67 32.18 29.67 32.18 23.469 30.663 23.469 30.663 25.973"/><rect x="33.568" y="23.4698" width="1.5182" height="6.2012"/><polygon points="39.279 27.494 37.965 23.47 36.466 23.47 36.466 29.671 37.743 29.671 37.743 25.631 39.048 29.671 40.574 29.671 40.574 23.47 39.279 23.47 39.279 27.494"/><path d="M45.178,23.593a3.1338,3.1338,0,0,0-1.33-.238c-1.51,0-1.944.553-1.944,1.986v2.31c0,.799,0,2.038,1.3219,2.038A1.2844,1.2844,0,0,0,44.379,29.1v.57h1.457V26.395H43.7939v1.028h.5851v.702c0,.229,0,.588-.4781.588-.48,0-.48-.377-.48-.597V25.025c0-.283,0-.589.47-.589.488,0,.488.343.488.57v.581h1.457v-.555A1.3656,1.3656,0,0,0,45.178,23.593Z"/></svg>